Coordinates
version=1
nRows=11
nColumns=40
inDegrees=yes

Units are S.I. units (second, meters, Newtons, ...)
Angles are in degrees.

endheader
time	pelvis_tilt	pelvis_list	pelvis_rotation	pelvis_tx	pelvis_ty	pelvis_tz	hip_flexion_r	hip_adduction_r	hip_rotation_r	knee_angle_r	knee_angle_r_beta	ankle_angle_r	subtalar_angle_r	mtp_angle_r	hip_flexion_l	hip_adduction_l	hip_rotation_l	knee_angle_l	knee_angle_l_beta	ankle_angle_l	subtalar_angle_l	mtp_angle_l	lumbar_extension	lumbar_bending	lumbar_rotation	arm_flex_r	arm_add_r	arm_rot_r	elbow_flex_r	pro_sup_r	wrist_flex_r	wrist_dev_r	arm_flex_l	arm_add_l	arm_rot_l	elbow_flex_l	pro_sup_l	wrist_flex_l	wrist_dev_l
      4.32914286	     -2.13874556	     -4.43682830	     -7.56129694	      1.00534606	      0.93245947	      0.43916392	     20.99650720	     -0.55125402	    -11.48053982	     16.20950540	     16.20950540	      3.03506140	      1.44403803	      1.13427368	      3.81772583	     -4.11852439	    -14.52872416	     16.81082225	     16.81082225	     15.59247898	    -14.86676486	     -3.34140789	    -10.65725126	      5.52642667	      1.84261520	    -12.77399440	    -11.39502000	     -8.28192663	     27.58864480	     46.23829907	      0.00000000	      0.00000000	     21.71571730	    -16.56650304	    -10.13064473	     76.03147306	     47.34804329	      0.00000000	      0.00000000
      4.34828571	     -2.37624174	     -4.27983549	     -7.96184509	      1.00686362	      0.93166180	      0.44205924	     20.82802883	     -0.35118454	    -11.39035837	     15.21445295	     15.21445295	      2.79670348	      2.60382429	      1.17754789	      3.04263566	     -3.99178314	    -15.03660744	     15.93605096	     15.93605096	     15.67687180	    -14.46134497	     -3.73823027	    -10.32856096	      5.56325110	      1.85283553	    -14.21382415	    -11.25057778	     -8.41873786	     27.55893633	     46.23694460	      0.00000000	      0.00000000	     22.01280583	    -16.61719688	    -10.64559663	     77.41668791	     47.41660645	      0.00000000	      0.00000000
      4.36742857	     -2.41293786	     -4.14651309	     -8.37034352	      1.00872288	      0.93092435	      0.44520621	     20.56978125	     -0.24755991	    -11.53813513	     14.87195737	     14.87195737	      2.67550659	      3.71068065	      0.59203141	      2.02721888	     -3.88687855	    -15.71455933	     15.07902291	     15.07902291	     15.65780035	    -13.94514616	     -4.49365912	    -10.32486251	      5.58441641	      1.83963679	    -15.60070661	    -11.20364885	     -8.76643803	     28.12439869	     46.22623926	      0.00000000	      0.00000000	     22.07536712	    -16.68403118	    -11.61696209	     79.66376317	     47.53497287	      0.00000000	      0.00000000
      4.38657143	     -2.60699350	     -4.04021733	     -8.73865348	      1.01059616	      0.92974855	      0.44848814	     20.50042300	     -0.07462214	    -11.38042265	     14.81333153	     14.81333153	      2.21430449	      3.89183923	     -1.24259420	      1.35779453	     -3.87210921	    -16.19038940	     14.53947506	     14.53947506	     15.52957083	    -13.79429934	     -5.60201223	    -10.12394704	      5.69960506	      1.23862185	    -16.58489752	    -11.24721659	     -9.37869491	     29.53473001	     46.20173473	      0.00000000	      0.00000000	     21.47582055	    -16.94013533	    -13.33662912	     82.27039130	     47.72545597	      0.00000000	      0.00000000
      4.40571429	     -2.75730974	     -3.99524896	     -9.10495224	      1.01256912	      0.92874417	      0.45195690	     20.47373409	      0.12766459	    -11.15357868	     15.22555483	     15.22555483	      2.35308218	      3.82189780	     -1.62745425	      0.70971741	     -3.91780620	    -16.55354212	     14.17940042	     14.17940042	     15.73262340	    -13.71629275	     -5.57679584	     -9.89340125	      5.90220263	      1.31729598	    -17.16661760	    -11.29363252	     -9.42198065	     29.40868088	     46.20524965	      0.00000000	      0.00000000	     21.86388848	    -17.02309694	    -13.61923500	     82.93453563	     47.76239060	      0.00000000	      0.00000000
      4.42485714	     -2.83968817	     -3.94454956	     -9.48106227	      1.01473178	      0.92780662	      0.45566643	     20.34530860	      0.36660982	    -10.60211661	     15.71198407	     15.71198407	      2.13000264	      3.05586917	     -3.45610071	     -0.01652862	     -3.98106427	    -17.05659922	     13.86453869	     13.86453869	     16.08327618	    -13.29815213	     -5.37655029	     -9.83507920	      6.03147579	      1.09009293	    -17.59911831	    -11.36328164	     -9.90258895	     30.43966803	     46.18990509	      0.00000000	      0.00000000	     21.42857494	    -16.84396146	    -15.00724437	     85.40452372	     47.91843991	      0.00000000	      0.00000000
      4.44400000	     -3.05460940	     -4.01548839	     -9.79119692	      1.01684096	      0.92692202	      0.45953319	     20.22520052	      0.69919655	    -10.39836217	     16.15153360	     16.15153360	      2.48404912	      2.98538211	     -3.74251367	     -0.47970565	     -4.21985592	    -17.27312916	     13.77062014	     13.77062014	     16.23790072	    -13.42510126	     -5.30116502	     -9.53832745	      6.33323190	      1.05536346	    -17.58813784	    -11.45875305	     -9.93400707	     30.47547790	     46.19077558	      0.00000000	      0.00000000	     21.74178894	    -16.94821891	    -15.11573248	     85.64492933	     47.93296126	      0.00000000	      0.00000000
      4.46314286	     -3.08062610	     -3.93524907	    -10.13089387	      1.01890323	      0.92616542	      0.46349448	     20.35325873	      0.91199588	     -9.42628759	     17.37836382	     17.37836382	      2.68286348	      1.26338802	     -4.90406358	     -1.12948904	     -4.26778127	    -17.64995980	     13.70633483	     13.70633483	     16.82472971	    -13.09110724	     -4.25494195	     -9.62658091	      6.44138380	      0.86784018	    -17.52397602	    -11.61946063	    -10.47413844	     31.64986822	     46.17525469	      0.00000000	      0.00000000	     21.30812604	    -16.78004826	    -16.58166248	     87.87649403	     48.08528088	      0.00000000	      0.00000000
      4.48228571	     -3.27482044	     -4.07669336	    -10.38177329	      1.02095176	      0.92566639	      0.46763188	     20.21602135	      1.30560034	     -9.20049187	     17.93620022	     17.93620022	      3.13045087	      1.14673663	     -5.20762512	     -1.58140070	     -4.62193124	    -17.81339792	     13.67782348	     13.67782348	     16.81564862	    -13.17794771	     -4.06329704	     -9.39974560	      6.82399766	      0.95389105	    -17.09326969	    -11.83114408	    -10.52898967	     31.85771632	     46.17393714	      0.00000000	      0.00000000	     21.56333773	    -16.79057048	    -16.65155220	     88.09913350	     48.09669577	      0.00000000	      0.00000000
      4.50142857	     -3.34713550	     -3.99652212	    -10.63824052	      1.02280835	      0.92521597	      0.47185189	     20.37758248	      1.51084548	     -8.40266421	     19.16956668	     19.16956668	      3.71710852	     -0.13447096	     -5.47337205	     -2.06756592	     -4.72772978	    -18.01902179	     13.76000069	     13.76000069	     17.09918958	    -13.05518338	     -3.19892908	     -9.41642229	      6.87056177	      0.90320868	    -16.61780894	    -12.04179232	    -10.88073195	     32.69668589	     46.16408153	      0.00000000	      0.00000000	     21.49967773	    -16.72254671	    -17.36469006	     89.24792255	     48.17115463	      0.00000000	      0.00000000
      4.52057143	     -3.49409201	     -4.09046298	    -10.82428437	      1.02459013	      0.92512279	      0.47620247	     20.22455096	      1.91224548	     -7.95604152	     19.73319711	     19.73319711	      4.37708881	     -0.67615400	     -5.05157765	     -2.29562297	     -5.14240330	    -18.25970612	     14.30688514	     14.30688514	     18.14935676	    -12.50454500	     -0.66085513	     -9.39849039	      7.12567290	      0.37684079	    -15.91900837	    -12.30171182	    -11.74477104	     34.22021439	     46.14899416	      0.00000000	      0.00000000	     20.93154526	    -16.71270380	    -18.75664526	     90.83464683	     48.32042825	      0.00000000	      0.00000000
